<svg width="100%" viewBox="0 0 650 630" fill="none" xmlns="http://www.w3.org/2000/svg">
<g id="Boombox">
<g id="boombox">
<g id="body">
<g id="body_2">
<mask id="path-1-inside-1" fill="white">
<rect x="25" y="308" width="600" height="301" rx="15"/>
</mask>
<rect x="25" y="308" width="600" height="301" rx="15" fill="#676767" stroke="black" stroke-width="40" stroke-linejoin="round" mask="url(#path-1-inside-1)"/>
</g>
<rect id="Rectangle 2" x="187" y="337" width="275" height="33" rx="10" fill="#E9E9E9" stroke="black" stroke-width="10"/>
<rect id="Rectangle 7" x="236" y="562" width="178" height="37" rx="10" stroke="black" stroke-width="10"/>
<g id="tape">
<rect id="Rectangle 1" x="270" y="459" width="109" height="69" rx="10" stroke="black" stroke-width="10"/>
<path id="Vector 1" d="M367 478H282V504.5H308.5L310.5 498H338.5L341 504.5H367V478Z" fill="#C4C4C4" stroke="black" stroke-width="10" stroke-linecap="round" stroke-linejoin="round"/>
<circle id="Ellipse 5" cx="303" cy="489" r="5" fill="black"/>
<circle id="Ellipse 6" cx="345" cy="489" r="5" fill="black"/>
</g>
</g>
<g id="tweeter2">
<circle id="Ellipse 1" cx="562.5" cy="382.5" r="32.5" fill="#C4C4C4" stroke="black" stroke-width="10"/>
<circle id="Ellipse 2" cx="562.875" cy="382.875" r="7.125" fill="black"/>
</g>
<g id="tweeter1">
<circle id="Ellipse 1_2" cx="87.5" cy="382.5" r="32.5" fill="#C4C4C4" stroke="black" stroke-width="10"/>
<circle id="Ellipse 2_2" cx="87.875" cy="382.875" r="7.125" fill="black"/>
</g>
<g id="driver2">
<circle id="Ellipse 3" cx="513" cy="503" r="75" fill="#C4C4C4" stroke="black" stroke-width="20"/>
<circle id="Ellipse 4" cx="513" cy="503" r="12" stroke="black" stroke-width="20"/>
</g>
<g id="driver1">
<circle id="Ellipse 3_2" cx="138" cy="503" r="75" fill="#C4C4C4" stroke="black" stroke-width="20"/>
<circle id="Ellipse 4_2" cx="138" cy="503" r="12" stroke="black" stroke-width="20"/>
</g>
<g id="handle">
<rect id="Rectangle 4" x="94" y="250" width="461" height="23" rx="11.5" fill="black"/>
<rect id="Rectangle 5" x="545" y="262" width="10" height="48" fill="black"/>
<rect id="Rectangle 6" x="94" y="262" width="10" height="48" fill="black"/>
</g>
<g id="vu">
<rect id="border" x="222" y="388" width="206" height="51" rx="10" fill="#414141" stroke="black" stroke-width="10"/>
<g id="bottom">
<rect id="1" x="231" y="416.72" width="16.6429" height="11.2867" rx="5.64337" fill="#2DE100"/>
<rect id="2" x="252.42" y="416.72" width="16.6429" height="11.2867" rx="5.64337" fill="#2DE100"/>
<rect id="3" x="273.839" y="416.72" width="16.6429" height="11.2867" rx="5.64337" fill="#2DE100"/>
<rect id="4" x="295.259" y="416.72" width="16.6429" height="11.2867" rx="5.64337" fill="#2DE100"/>
<rect id="5" x="316.679" y="416.72" width="16.6429" height="11.2867" rx="5.64337" fill="#2DE100"/>
<rect id="6" x="338.098" y="416.72" width="16.6429" height="11.2867" rx="5.64337" fill="#2DE100"/>
<rect id="7" x="359.518" y="416.72" width="16.6429" height="11.2867" rx="5.64337" fill="#FFCE1F"/>
<rect id="8" x="380.937" y="416.72" width="16.6429" height="11.2867" rx="5.64337" fill="#FFCE1F"/>
<rect id="9" x="402.357" y="416.72" width="16.6429" height="11.2867" rx="5.64337" fill="#FF6262"/>
</g>
<g id="top">
<rect id="1_2" x="231" y="398.993" width="16.6429" height="11.2867" rx="5.64337" fill="#2DE100"/>
<rect id="2_2" x="252.42" y="398.773" width="16.6429" height="11.2867" rx="5.64337" fill="#2DE100"/>
<rect id="3_2" x="273.839" y="398.773" width="16.6429" height="11.2867" rx="5.64337" fill="#2DE100"/>
<rect id="4_2" x="295.259" y="398.773" width="16.6429" height="11.2867" rx="5.64337" fill="#2DE100"/>
<rect id="5_2" x="316.679" y="398.773" width="16.6429" height="11.2867" rx="5.64337" fill="#2DE100"/>
<rect id="6_2" x="338.098" y="398.773" width="16.6429" height="11.2867" rx="5.64337" fill="#2DE100"/>
<rect id="7_2" x="359.518" y="398.773" width="16.6429" height="11.2867" rx="5.64337" fill="#FFCE1F"/>
<rect id="8_2" x="380.937" y="398.773" width="16.6429" height="11.2867" rx="5.64337" fill="#FFCE1F"/>
<rect id="9_2" x="402.357" y="399.773" width="16.6429" height="11.2867" rx="5.64337" fill="#FF6262"/>
</g>
</g>
</g>
<g id="bubble">
<g id="outline">
<mask id="path-38-inside-2" fill="white">
<path fill-rule="evenodd" clip-rule="evenodd" d="M431 36C431 24.9543 422.046 16 411 16H239C227.954 16 219 24.9543 219 36V208C219 219.046 227.954 228 239 228H246.005C251.309 228 256.396 230.107 260.147 233.858L310.569 284.279C318.379 292.09 331.042 292.09 338.853 284.279L389.274 233.858C393.025 230.107 398.112 228 403.416 228H411C422.046 228 431 219.046 431 208V36Z"/>
</mask>
<path fill-rule="evenodd" clip-rule="evenodd" d="M431 36C431 24.9543 422.046 16 411 16H239C227.954 16 219 24.9543 219 36V208C219 219.046 227.954 228 239 228H246.005C251.309 228 256.396 230.107 260.147 233.858L310.569 284.279C318.379 292.09 331.042 292.09 338.853 284.279L389.274 233.858C393.025 230.107 398.112 228 403.416 228H411C422.046 228 431 219.046 431 208V36Z" fill="white"/>
<path d="M389.274 233.858L375.132 219.716L389.274 233.858ZM310.569 284.279L296.426 298.421L310.569 284.279ZM338.853 284.279L352.995 298.421L338.853 284.279ZM260.147 233.858L274.289 219.716L260.147 233.858ZM239 36H411V-4H239V36ZM239 208V36H199V208H239ZM246.005 208H239V248H246.005V208ZM324.711 270.137L274.289 219.716L246.005 248L296.426 298.421L324.711 270.137ZM375.132 219.716L324.711 270.137L352.995 298.421L403.416 248L375.132 219.716ZM411 208H403.416V248H411V208ZM411 36V208H451V36H411ZM411 248C433.091 248 451 230.091 451 208H411C411 208.014 410.999 208.022 410.999 208.024C410.999 208.026 410.999 208.025 411 208.021C411 208.017 411.002 208.013 411.003 208.007C411.005 208.002 411.007 207.998 411.008 207.994C411.011 207.986 411.013 207.984 411.012 207.986C411.01 207.989 411.006 207.994 411 208C410.994 208.006 410.989 208.01 410.986 208.012C410.984 208.013 410.986 208.011 410.994 208.008C410.998 208.007 411.002 208.005 411.007 208.003C411.013 208.002 411.017 208 411.021 208C411.025 207.999 411.026 207.999 411.024 207.999C411.022 207.999 411.014 208 411 208V248ZM403.416 248V208C392.808 208 382.633 212.214 375.132 219.716L403.416 248ZM296.426 298.421C312.047 314.042 337.374 314.042 352.995 298.421L324.711 270.137C324.701 270.147 324.695 270.152 324.693 270.154C324.691 270.155 324.692 270.154 324.695 270.152C324.699 270.15 324.703 270.147 324.708 270.145C324.713 270.142 324.717 270.14 324.721 270.139C324.729 270.135 324.732 270.135 324.729 270.136C324.726 270.136 324.719 270.137 324.711 270.137C324.702 270.137 324.695 270.136 324.692 270.136C324.69 270.135 324.693 270.135 324.701 270.139C324.704 270.14 324.709 270.142 324.714 270.145C324.718 270.147 324.723 270.15 324.726 270.152C324.729 270.154 324.73 270.155 324.728 270.154C324.727 270.152 324.721 270.147 324.711 270.137L296.426 298.421ZM246.005 248H246.005L274.289 219.716C266.788 212.214 256.614 208 246.005 208V248ZM199 208C199 230.091 216.909 248 239 248V208C238.986 208 238.978 207.999 238.976 207.999C238.974 207.999 238.975 207.999 238.979 208C238.983 208 238.987 208.002 238.993 208.003C238.998 208.005 239.002 208.007 239.006 208.008C239.014 208.011 239.016 208.013 239.014 208.012C239.011 208.01 239.006 208.006 239 208C238.994 207.994 238.99 207.989 238.988 207.986C238.987 207.984 238.989 207.986 238.992 207.994C238.993 207.998 238.995 208.002 238.997 208.007C238.998 208.013 239 208.017 239 208.021C239.001 208.025 239.001 208.026 239.001 208.024C239.001 208.022 239 208.014 239 208H199ZM411 36C411.014 36 411.022 36.0007 411.024 36.0009C411.026 36.0011 411.025 36.0011 411.021 36.0003C411.017 35.9995 411.013 35.9983 411.007 35.9967C411.002 35.9951 410.998 35.9934 410.994 35.9918C410.986 35.9885 410.984 35.9867 410.986 35.9881C410.989 35.9899 410.994 35.9939 411 36C411.006 36.0061 411.01 36.0114 411.012 36.0139C411.013 36.0161 411.011 36.0138 411.008 36.0061C411.007 36.0023 411.005 35.9977 411.003 35.9926C411.002 35.9874 411 35.9826 411 35.9788C410.999 35.9749 410.999 35.9737 410.999 35.9758C410.999 35.9779 411 35.9856 411 36H451C451 13.9086 433.091 -4 411 -4V36ZM239 -4C216.909 -4 199 13.9086 199 36H239C239 35.9856 239.001 35.9779 239.001 35.9758C239.001 35.9737 239.001 35.9749 239 35.9788C239 35.9826 238.998 35.9874 238.997 35.9926C238.995 35.9977 238.993 36.0023 238.992 36.0061C238.989 36.0138 238.987 36.0162 238.988 36.0139C238.99 36.0114 238.994 36.0061 239 36C239.006 35.9939 239.011 35.9899 239.014 35.9881C239.016 35.9867 239.014 35.9885 239.006 35.9918C239.002 35.9934 238.998 35.9951 238.993 35.9967C238.987 35.9983 238.983 35.9995 238.979 36.0003C238.975 36.0011 238.974 36.0011 238.976 36.0009C238.978 36.0007 238.986 36 239 36V-4Z" fill="black" mask="url(#path-38-inside-2)"/>
</g>
<g id="note">
<ellipse id="Ellipse 7" cx="284.256" cy="162.618" rx="21.0866" ry="16.8693" transform="rotate(-17 284.256 162.618)" fill="black"/>
<ellipse id="Ellipse 8" cx="355.744" cy="162.618" rx="21.0866" ry="16.8693" transform="rotate(-17 355.744 162.618)" fill="black"/>
<rect id="Rectangle 11" x="296.52" y="93.6081" width="8.43466" height="67.4772" fill="black"/>
<rect id="Rectangle 12" x="367.941" y="93.6081" width="8.43466" height="67.4772" fill="black"/>
<path id="Rectangle 13" d="M296.52 91.6675C296.52 83.3833 303.236 76.6675 311.52 76.6675H361.376C369.66 76.6675 376.376 83.3833 376.376 91.6675V93.6081H296.52V91.6675Z" fill="black"/>
</g>
</g>
</g>
</svg>
